<svg id="bold" enable-background="new 0 0 32 32" height="512" viewBox="0 0 32 32" width="512" xmlns="http://www.w3.org/2000/svg"><path d="m26 32h-20c-3.314 0-6-2.686-6-6v-20c0-3.314 2.686-6 6-6h20c3.314 0 6 2.686 6 6v20c0 3.314-2.686 6-6 6z" fill="#ffe6e2"/><path d="m23.333 22.667v-8.333c0-.133-.08-.254-.202-.307l-4.667-2c-.219-.095-.464.068-.464.307v10.333h-.667v-14.167c0-.351-.353-.592-.678-.467l-7 2.667c-.194.074-.322.26-.322.467v11.5h-.666c-.369 0-.667.298-.667.667 0 .368.298.666.667.666h14.667c.368 0 .666-.298.666-.666 0-.369-.298-.667-.667-.667zm-2-6.167c0-.276.224-.5.5-.5s.5.224.5.5v1c0 .276-.224.5-.5.5s-.5-.224-.5-.5zm0 4c0-.276.224-.5.5-.5s.5.224.5.5v1c0 .276-.224.5-.5.5s-.5-.224-.5-.5zm-2.333-4c0-.276.224-.5.5-.5s.5.224.5.5v1c0 .276-.224.5-.5.5s-.5-.224-.5-.5zm0 4c0-.276.224-.5.5-.5s.5.224.5.5v1c0 .276-.224.5-.5.5s-.5-.224-.5-.5zm-4.667-8c0-.276.224-.5.5-.5s.5.224.5.5v1c0 .276-.224.5-.5.5s-.5-.224-.5-.5zm0 4c0-.276.224-.5.5-.5s.5.224.5.5v1c0 .276-.224.5-.5.5s-.5-.224-.5-.5zm0 4c0-.276.224-.5.5-.5s.5.224.5.5v1c0 .276-.224.5-.5.5s-.5-.224-.5-.5zm-3-8c0-.276.224-.5.5-.5s.5.224.5.5v1c0 .276-.224.5-.5.5s-.5-.224-.5-.5zm0 4c0-.276.224-.5.5-.5s.5.224.5.5v1c0 .276-.224.5-.5.5s-.5-.224-.5-.5zm0 4c0-.276.224-.5.5-.5s.5.224.5.5v1c0 .276-.224.5-.5.5s-.5-.224-.5-.5z" fill="#fc573b"/></svg>